# xmcd
#
# Track frame offsets:
#	150
#	14187
#	36275
#	51496
#	68905
#
# Disc length: 1149 seconds
#
# Revision: 0
# Processed by: cddbd v1.5.2PL0 Copyright (c) Steve Scherf et al.
# Submitted via: EasyCDDAExtractor 12.0.7.1
#
DISCID=49047b05
DTITLE=정인 - 정인 from Andromeda
DYEAR=2010
DGENRE=Acid Jazz
TTITLE0=Show!
TTITLE1=살아가는 동안에
TTITLE2=미워요
TTITLE3=Girls On Shock
TTITLE4=고마워
EXTD=
EXTT0=
EXTT1=
EXTT2=
EXTT3=
EXTT4=
PLAYORDER=
